<?xml version="1.0" encoding="utf-8"?>
<!-- Generator: Adobe Illustrator 27.6.1, SVG Export Plug-In . SVG Version: 6.00 Build 0)  -->
<svg version="1.1" id="Layer_1" xmlns="http://www.w3.org/2000/svg" xmlns:xlink="http://www.w3.org/1999/xlink" x="0px" y="0px"
	 viewBox="0 0 412.1 142.5" style="enable-background:new 0 0 412.1 142.5;" xml:space="preserve">
<style type="text/css">
	.st0{fill:#333F48;}
	.st1{fill:#BF5700;}
</style>
<g>
	<path class="st0" d="M75.6,29.7l3.3,0.1l2.8-0.1l0.1,1.1l-2.5,0.4v18.2l2.4,0.4l-0.1,1L78,50.7l-4.3,0.1l-0.1-1l2.7-0.4V35.6
		l0.4-3.5l-7.6,18.6h-1.9l-6-15.1l-1.1-3.5v17.2l2.6,0.4l-0.2,1l-3.2-0.1l-3.4,0.1l-0.1-1l2.4-0.4V31.2l-2.5-0.4l0.2-1.1l3.1,0.1
		l3.3-0.1l6.3,15.9l0.2,1.7L75.6,29.7z"/>
	<path class="st0" d="M89.2,36.2c3.8,0,4.7,1,4.7,4.8v5.9c0,1.3,0.2,1.8,0.5,2.2h1.5l0.1,1l-3.9,0.8l-0.9-2.3l-3.6,2.6
		c-2.6,0-4.4-1.4-4.4-3.8c0-1.1,0.4-1.9,1-2.8l6.8-2.2v-1.5c0-1.8-0.1-2.9-1.8-2.9c-0.8,0-1.8,0.3-2.5,0.5l-0.5,2.4h-2.6v-2.3
		L89.2,36.2z M91,43.6l-4.3,1.8c-0.4,0.5-0.6,1.1-0.6,1.7c0,1.5,0.9,2.1,1.7,2.1s1.6-0.5,1.9-0.8l1.3-0.9L91,43.6L91,43.6z"/>
	<path class="st0" d="M105.2,38.3c-0.3-0.2-1.2-0.7-2.3-0.7c-1.2,0-2.3,0.6-2.3,1.8c0,1,0.8,1.6,2.1,2.2l2.3,1.2
		c2,1,2.8,2.2,2.8,3.9c0,2.7-2.2,3.7-5.6,4.5c-1.8,0-3.8-0.9-4.6-1.4L97,46.4h1.9l1,2.5c0.6,0.4,1.5,0.8,2.5,0.8
		c1.6,0,2.4-1,2.4-2.3c0-1.2-0.6-1.7-2.2-2.5l-2.4-1.2c-1.3-0.7-2.5-1.8-2.5-3.5c0-2.1,2-3.3,5.4-4c1.6,0,3.4,0.7,4.2,1.3v3h-1.6
		L105.2,38.3z"/>
	<path class="st0" d="M112.9,43.1c0,3.4,1.8,5.9,5,5.9c1.2,0,2.6-0.6,3.8-1.3l0.5,1.1c-1.4,1-3.3,1.8-5.2,2.4
		c-3.6,0-6.9-2.6-6.9-7.3c0-4.4,2.7-6.8,6.8-7.7c4,0,5.3,2.5,5.3,5.6v1.3H112.9z M118.9,41.6c0-2.3-0.5-3.9-2.8-3.9
		c-1.8,0-3,1.7-3.2,4.2L118.9,41.6z"/>
	<path class="st0" d="M127,43.1c0,3.4,1.8,5.9,5,5.9c1.2,0,2.6-0.6,3.8-1.3l0.5,1.1c-1.4,1-3.3,1.8-5.2,2.4c-3.6,0-6.9-2.6-6.9-7.3
		c0-4.4,2.7-6.8,6.8-7.7c4,0,5.3,2.5,5.3,5.6v1.3H127z M133,41.6c0-2.3-0.5-3.9-2.8-3.9c-1.8,0-3,1.7-3.2,4.2L133,41.6z"/>
	<path class="st0" d="M142.2,49.4l1.7,0.3l-0.2,1l-2.8-0.1l-3.5,0.1l-0.2-1l2.1-0.3V31.3l-2.1,0.1l-0.1-1l3.6-0.9l1.5-0.1v9.7
		l4.4-2.8c3.8,0,4.5,1.4,4.5,5.2v8l2.2,0.3l-0.1,1l-3.5-0.1l-2.8,0.1l-0.2-1l1.5-0.3v-8.6c0-1.6-0.7-2.2-1.9-2.2
		c-0.9,0-2.1,0.7-3.2,1.4l-0.9,0.6V49.4z"/>
	<path class="st0" d="M166.1,29.8l6-0.1c6.1,0,9.9,3.5,9.9,9.9c0,6.5-3.4,10.3-10.2,11.1l-5.7-0.1l-4,0.1l-0.2-1l2.7-0.4V31.2
		l-2.7-0.4l0.2-1.1L166.1,29.8z M167.7,31.2v18l3.8,0.3c4.2,0,7-3.8,7-9.4c0-5-2.6-9-7.8-9L167.7,31.2z"/>
	<path class="st0" d="M186.9,43.1c0,3.4,1.8,5.9,5,5.9c1.2,0,2.6-0.6,3.8-1.3l0.5,1.1c-1.4,1-3.3,1.8-5.2,2.4
		c-3.6,0-6.9-2.6-6.9-7.3c0-4.4,2.7-6.8,6.8-7.7c4,0,5.3,2.5,5.3,5.6v1.3H186.9z M193,41.6c0-2.3-0.5-3.9-2.8-3.9
		c-1.8,0-3,1.7-3.2,4.2L193,41.6z"/>
	<path class="st0" d="M202.3,50.6v5.8l3.1,0.3l-0.1,1l-4.4-0.1l-3.4,0.1l-0.2-1l2.1-0.3V38.5l-2.1,0.2l-0.1-1l3.6-0.9l1.3-0.1
		l0.2,2.5l3.8-2.9c3.9,0,6.1,2.6,6.1,7c0,5.1-3.1,7.4-7.5,8C203.8,51.2,203,51,202.3,50.6z M206.1,38.5c-0.8,0-1.8,0.5-2.9,1.4
		l-0.9,0.7v7.5c0.7,1,1.9,1.6,3.3,1.6c2.2,0,3.6-2.1,3.6-5.6S207.9,38.5,206.1,38.5z"/>
	<path class="st0" d="M220,36.2c3.8,0,4.7,1,4.7,4.8v5.9c0,1.3,0.2,1.8,0.5,2.2h1.5l0.1,1l-3.9,0.8l-0.9-2.3l-3.6,2.6
		c-2.6,0-4.4-1.4-4.4-3.8c0-1.1,0.4-1.9,1-2.8l6.8-2.2v-1.5c0-1.8-0.2-2.9-1.8-2.9c-0.8,0-1.8,0.3-2.5,0.5l-0.5,2.4h-2.6v-2.3
		L220,36.2z M221.9,43.6l-4.3,1.8c-0.5,0.5-0.6,1.1-0.6,1.7c0,1.5,0.9,2.1,1.7,2.1c0.8,0,1.6-0.5,2-0.8l1.3-0.9v-3.9H221.9z"/>
	<path class="st0" d="M232.8,40.6l3.4-4.2h2.4v3h-2.2c-0.7,0.1-2,1.1-2.8,2.1l-0.6,0.7v7.1l3.1,0.3l-0.1,1.1l-4.3-0.1l-3.4,0.1
		l-0.2-1l2.1-0.3V38.5l-2.1,0.2l-0.1-1.1l3.6-0.9l1.2-0.1V40.6z"/>
	<path class="st0" d="M239.8,38.4v-0.5l1-1h2v-2l1.9-1.9h0.8v4h4.5v1.3h-4.5v8.8c0,0.9,0.3,1.8,1.6,1.8c0.9,0,1.5-0.3,2.4-0.7l0.5,1
		l-3.5,2c-3.4,0-3.8-1.2-3.8-3.9v-8.9C242.7,38.4,239.8,38.4,239.8,38.4z"/>
	<path class="st0" d="M272.1,50.7l-2.8,0.1l-0.2-1l1.5-0.3v-8.6c0-1.6-0.7-2.2-1.7-2.2c-0.9,0-2,0.6-3.1,1.4l-0.9,0.6v8.8l1.3,0.3
		l-0.2,1l-2.5-0.1l-2.7,0.1l-0.1-1l1.4-0.3v-8.6c0-1.6-0.7-2.2-1.7-2.2c-0.9,0-2,0.6-3.1,1.4l-0.9,0.6v8.8l1.5,0.3l-0.1,1l-2.7-0.1
		l-3.4,0.1l-0.2-1l2.1-0.3v-11l-2.1,0.2l-0.2-1.1l3.6-0.9l1.3-0.1l0.2,2.5l4.1-2.9c2.9,0,4,0.9,4.3,2.9l4.2-2.9
		c3.8,0,4.5,1.4,4.5,5.2v8l2.2,0.3l-0.1,1H272.1z"/>
	<path class="st0" d="M279.6,43.1c0,3.4,1.8,5.9,5,5.9c1.2,0,2.6-0.6,3.8-1.3l0.5,1.1c-1.4,1-3.3,1.8-5.2,2.4
		c-3.6,0-6.9-2.6-6.9-7.3c0-4.4,2.7-6.8,6.8-7.7c4,0,5.3,2.5,5.3,5.6v1.3H279.6z M285.6,41.6c0-2.3-0.5-3.9-2.8-3.9
		c-1.8,0-3,1.7-3.2,4.2L285.6,41.6z"/>
	<path class="st0" d="M294,50.7l-3.5,0.1l-0.2-1l2.1-0.3v-11l-2.1,0.2l-0.1-1.1l3.6-0.9l1.3-0.1l0.2,2.5l4.4-2.9
		c3.8,0,4.5,1.3,4.5,4.9v8.3l2.3,0.3l-0.1,1l-3.5-0.1l-2.9,0.1l-0.1-1l1.5-0.3v-8.6c0-1.6-0.7-2.2-2-2.2c-1,0-2.1,0.7-3.1,1.4
		l-0.9,0.6v8.9l1.7,0.3l-0.2,1L294,50.7z"/>
	<path class="st0" d="M306.4,38.4v-0.5l1-1h2v-2l1.9-1.9h0.8v4h4.5v1.3h-4.5v8.8c0,0.9,0.3,1.8,1.6,1.8c0.9,0,1.5-0.3,2.4-0.7l0.5,1
		l-3.5,2c-3.4,0-3.8-1.2-3.8-3.9v-8.9C309.3,38.4,306.4,38.4,306.4,38.4z"/>
	<path class="st0" d="M339.2,43.4c0,4.5-2.7,7-7.4,7.8c-4,0-6.7-3.1-6.7-7.2c0-4.5,2.7-7,7.4-7.8C336.5,36.2,339.2,39.3,339.2,43.4z
		 M332.6,49.7c2.4,0,3.6-2.5,3.6-5.7c0-3.8-1.8-6.4-4.4-6.4c-2.4,0-3.6,2.5-3.6,5.7C328.1,46.8,329.9,49.7,332.6,49.7z"/>
	<path class="st0" d="M346,37h3.8v1.4H346v11.1l3.5,0.2l-0.2,1.1l-4.7-0.1l-3.4,0.1l-0.2-1l2.1-0.3V38.4h-2.6v-0.5l0.9-1h1.7v-0.3
		c0-1.8,0.6-3,1.7-4.2l2.5-2.9h3.8v2.4h-3.9l-0.6,0.8c-0.4,0.6-0.6,1.4-0.6,3.4L346,37L346,37z"/>
	<path class="st0" d="M74.7,76.1l-0.8,4.3c-1.6,0.8-4.8,2-7.3,2.3c-5.6,0-10.8-3.8-10.8-10.8s4.6-10.4,11.3-11.3
		c3.1,0,5.9,1.4,7.2,2.3v4h-1.6l-1-2.8c-0.8-0.9-2.5-2-5-2c-4.4,0-7.5,3.1-7.5,9c0,4.9,3,9.8,8.2,9.8c1.8,0,3.1-1,3.9-1.7l1.6-3.3
		h1.8V76.1z"/>
	<path class="st0" d="M80,82.2l-3.5,0.1l-0.2-1l2.1-0.3V70l-2.1,0.2l-0.1-1.1l3.6-0.9l1.5-0.1V81l2.2,0.3l-0.1,1L80,82.2z
		 M78.5,61.6l2.2-0.1l0.8,0.1l0.1,1.7l-0.3,1.4l-2.1,0.2l-0.8-0.2L78.2,63L78.5,61.6z"/>
	<path class="st0" d="M92,80.3l3.6-10.9l-1.4-0.3l0.1-1l2.6,0.1l2.5-0.1l0.2,1l-1.9,0.3l-4.9,12.3l-2.2,0.9l-5.2-13.2l-1.9-0.3
		l0.1-1l3.5,0.1l3.2-0.1l0.1,1l-2,0.3l3.3,8.8L92,80.3z"/>
	<path class="st0" d="M104.5,82.2l-3.5,0.1l-0.2-1l2.1-0.3V70l-2.1,0.2l-0.1-1.1l3.6-0.9l1.5-0.1V81l2.2,0.3l-0.1,1L104.5,82.2z
		 M103,61.6l2.2-0.1l0.8,0.1l0.1,1.7l-0.3,1.4l-2.1,0.2l-0.8-0.2l-0.2-1.7L103,61.6z"/>
	<path class="st0" d="M113.3,82.2l-3.5,0.1l-0.2-1l2.1-0.3V62.9l-2.1,0.1l-0.1-1l3.6-0.9l1.5-0.1v20.1l2.2,0.3l-0.2,1L113.3,82.2z"
		/>
	<path class="st0" d="M119.5,82.3l-0.2-1.7l0.2-1.4l2.2-0.1l0.9,0.1l0.2,1.7l-0.2,1.5l-1.9,4.3l-1.1-0.4c0.5-1,1.1-3,1.1-3.8
		L119.5,82.3z"/>
	<path class="st0" d="M137.6,75.2l-2,5.6l2.6,0.4l-0.2,1l-3.6-0.1l-3.2,0.1l-0.2-1l2.3-0.3l7.4-19.4l1.8-0.5l7.8,19.9l2.3,0.3
		l-0.2,1l-4.1-0.1l-4,0.1l-0.1-1l2.5-0.4l-2-5.6C144.7,75.2,137.6,75.2,137.6,75.2z M141.6,65.9l-0.2-1.6l-3.3,9.5h6.4L141.6,65.9z"
		/>
	<path class="st0" d="M159,72.1l3.4-4.2h2.4v3h-2.2c-0.7,0.1-2,1.1-2.8,2.1l-0.6,0.7v7.1l3.1,0.3l-0.1,1.1l-4.3-0.1l-3.4,0.1l-0.2-1
		l2.1-0.3V70l-2.1,0.2l-0.1-1.1l3.6-0.9l1.2-0.1L159,72.1z"/>
	<path class="st0" d="M174.3,69.8c-0.5-0.4-0.9-0.5-1.7-0.5c-2,0-3.6,2.3-3.6,5.5s1.7,5.6,4.7,5.6c1.1,0,2.3-0.6,3.4-1.3l0.5,1.1
		c-1.4,1-2.9,1.7-4.9,2.4c-3.8,0-6.7-2.5-6.7-7.1c0-4.7,3.5-7,7.1-7.9c1.4,0,3.2,0.7,4.1,1.5v3H175L174.3,69.8z"/>
	<path class="st0" d="M184,80.9l1.7,0.3l-0.2,1l-2.8-0.1l-3.5,0.1l-0.2-1l2.1-0.3V62.8l-2.1,0.1l-0.1-1l3.6-0.9l1.5-0.1v9.7l4.4-2.8
		c3.8,0,4.5,1.4,4.5,5.2v8l2.2,0.3l-0.1,1l-3.5-0.1l-2.8,0.1l-0.2-1L190,81v-8.6c0-1.6-0.7-2.2-1.9-2.2c-0.9,0-2.1,0.7-3.2,1.4
		L184,72V80.9z"/>
	<path class="st0" d="M200.2,82.2l-3.5,0.1l-0.2-1l2.1-0.3V70l-2.1,0.2l-0.1-1.1l3.6-0.9l1.5-0.1V81l2.2,0.3l-0.2,1L200.2,82.2z
		 M198.7,61.6l2.2-0.1l0.8,0.1l0.1,1.7l-0.3,1.4l-2.1,0.2l-0.8-0.2l-0.2-1.7L198.7,61.6z"/>
	<path class="st0" d="M204.3,69.9v-0.5l1-1h2v-2l2-1.9h0.8v4.1h4.5v1.3H210v8.8c0,0.9,0.3,1.8,1.6,1.8c0.9,0,1.5-0.3,2.4-0.7l0.5,1
		l-3.5,2c-3.4,0-3.8-1.2-3.8-3.9V70h-2.9V69.9z"/>
	<path class="st0" d="M217.9,74.6c0,3.4,1.8,5.9,5,5.9c1.2,0,2.6-0.6,3.8-1.3l0.5,1.1c-1.4,1-3.3,1.8-5.2,2.4
		c-3.6,0-6.9-2.6-6.9-7.3c0-4.4,2.7-6.8,6.8-7.7c4,0,5.3,2.5,5.3,5.6v1.3H217.9z M223.9,73.1c0-2.3-0.4-3.9-2.8-3.9
		c-1.8,0-3,1.7-3.2,4.2L223.9,73.1z"/>
	<path class="st0" d="M237.3,69.8c-0.5-0.4-0.9-0.5-1.7-0.5c-2,0-3.6,2.3-3.6,5.5s1.7,5.6,4.7,5.6c1.1,0,2.3-0.6,3.4-1.3l0.5,1.1
		c-1.4,1-2.9,1.7-4.9,2.4c-3.8,0-6.7-2.5-6.7-7.1c0-4.7,3.5-7,7.1-7.9c1.4,0,3.2,0.7,4.1,1.5v3H238L237.3,69.8z"/>
	<path class="st0" d="M241.4,69.9v-0.5l1.1-1h1.9v-2l2-1.9h0.8v4.1h4.5v1.3h-4.5v8.8c0,0.9,0.3,1.8,1.6,1.8c0.9,0,1.5-0.3,2.4-0.7
		l0.5,1l-3.5,2c-3.4,0-3.8-1.2-3.8-3.9V70h-3V69.9z"/>
	<path class="st0" d="M266.8,78.4c0,1.3,0.2,1.8,0.4,2.2h1.5l0.1,1l-3.9,0.8l-0.8-2.4l-4.3,2.7c-4,0-4.6-1.4-4.6-4.9V70l-2.1,0.1
		l-0.2-1.2l3.6-0.8L258,68v10c0,1.6,0.7,2.2,2.1,2.2c0.9,0,2.1-0.8,3.3-1.5l0.6-0.4V70l-1.8,0.1L262,69l3.3-0.8l1.5-0.1V78.4z"/>
	<path class="st0" d="M275,72.1l3.4-4.2h2.4v3h-2.2c-0.7,0.1-2,1.1-2.8,2.1l-0.6,0.7v7.1l3.1,0.3l-0.1,1.1l-4.3-0.1l-3.4,0.1l-0.2-1
		l2.1-0.3V70l-2.1,0.2l-0.1-1.1l3.6-0.9l1.2-0.1V72.1z"/>
	<path class="st0" d="M287.8,67.7c3.8,0,4.7,1,4.7,4.8v5.9c0,1.3,0.2,1.8,0.5,2.2h1.5l0.1,1l-3.9,0.8l-0.9-2.3l-3.6,2.6
		c-2.6,0-4.4-1.4-4.4-3.8c0-1.1,0.4-1.9,1.1-2.8l6.8-2.2v-1.5c0-1.8-0.2-2.9-1.8-2.9c-0.8,0-1.8,0.3-2.5,0.5l-0.5,2.4h-2.6v-2.3
		L287.8,67.7z M289.7,75.1l-4.4,1.8c-0.5,0.5-0.6,1.1-0.6,1.7c0,1.5,0.9,2.1,1.7,2.1c0.8,0,1.6-0.5,2-0.8l1.3-0.9V75.1z"/>
	<path class="st0" d="M299.5,82.2l-3.4,0.1l-0.2-1L298,81V62.9l-2.1,0.1l-0.2-1l3.6-0.9l1.5-0.1v20.1l2.2,0.3l-0.1,1L299.5,82.2z"/>
	<path class="st0" d="M317.5,67.7c3.8,0,4.7,1,4.7,4.8v5.9c0,1.3,0.2,1.8,0.5,2.2h1.5l0.1,1l-3.9,0.8l-0.9-2.3l-3.6,2.6
		c-2.6,0-4.4-1.4-4.4-3.8c0-1.1,0.4-1.9,1-2.8l6.8-2.2v-1.5c0-1.8-0.1-2.9-1.8-2.9c-0.8,0-1.8,0.3-2.5,0.5l-0.5,2.4h-2.6v-2.3
		L317.5,67.7z M319.4,75.1l-4.3,1.8c-0.4,0.5-0.6,1.1-0.6,1.7c0,1.5,0.9,2.1,1.7,2.1c0.8,0,1.6-0.5,1.9-0.8l1.3-0.9V75.1z"/>
	<path class="st0" d="M329.2,82.2l-3.5,0.1l-0.2-1l2.1-0.3V70l-2.1,0.2l-0.1-1.1l3.6-0.9l1.3-0.1l0.2,2.5l4.4-2.9
		c3.8,0,4.5,1.3,4.5,4.9v8.3l2.3,0.3l-0.1,1l-3.5-0.1l-2.9,0.1l-0.1-1l1.5-0.3v-8.6c0-1.6-0.7-2.2-2-2.2c-1,0-2.1,0.7-3.1,1.4
		l-0.9,0.6V81l1.7,0.3l-0.2,1L329.2,82.2z"/>
	<path class="st0" d="M355.4,78.4c0,1.2,0.2,1.7,0.5,2.2h1.7l0.1,1.1l-4,0.8l-0.9-2.3l-3.9,2.6c-3.8,0-6.2-2.9-6.2-7
		c0-4.9,3-7.4,7.4-8c0.6,0,1.9,0.5,2.5,0.8v-5.7l-2.1,0.1l-0.2-1l3.6-0.9l1.5-0.1V78.4z M351.6,79.1l0.9-0.7v-7.9
		c-0.7-0.8-1.7-1.2-3-1.2c-2.4,0-3.9,2.2-3.9,5.7c0,3.3,1.3,5.4,3.1,5.4C349.6,80.3,350.6,79.9,351.6,79.1z"/>
	<path class="st0" d="M71.7,92.7l0.3,5.4h-1l-1.7-3.9l-7.9-0.1v8l4.2-0.1l1.2-3.1h1l-0.3,3.7l0.3,4h-1l-1.2-3.1l-4.2-0.1v9l8.2-0.1
		l2-4h1.1l-1.1,5.5l-11.9-0.1l-4.1,0.1l-0.2-1l2.7-0.4V94.2l-2.7-0.4l0.2-1.1l4.1,0.1L71.7,92.7z"/>
	<path class="st0" d="M77.3,113.7l-3.5,0.1l-0.1-1l2.1-0.3v-10.9l-2.1,0.2l-0.2-1.1l3.6-0.9l1.3-0.1l0.2,2.5l4.4-2.9
		c3.8,0,4.5,1.3,4.5,4.9v8.3l2.3,0.3l-0.1,1l-3.5-0.1l-2.9,0.1l-0.2-1l1.5-0.3v-8.6c0-1.6-0.7-2.2-2-2.2c-1,0-2.1,0.7-3.1,1.3
		l-0.9,0.6v8.9l1.7,0.3l-0.2,1L77.3,113.7z"/>
	<path class="st0" d="M97.1,111.8l3.6-10.9l-1.4-0.3l0.2-1l2.6,0.1l2.5-0.1l0.1,1l-1.9,0.3l-4.9,12.3l-2.2,0.9l-5.2-13.2l-1.9-0.3
		l0.2-1l3.5,0.1l3.1-0.1l0.2,1l-2,0.3l3.3,8.8L97.1,111.8z"/>
	<path class="st0" d="M109.6,113.7l-3.5,0.1l-0.1-1l2.1-0.3v-10.9l-2.1,0.2l-0.2-1.1l3.6-0.9l1.5-0.1v12.9l2.2,0.3l-0.2,1
		L109.6,113.7z M108.1,93.1l2.2-0.1l0.8,0.1l0.2,1.7l-0.3,1.4l-2.1,0.2l-0.8-0.2l-0.2-1.7L108.1,93.1z"/>
	<path class="st0" d="M119.5,103.6l3.4-4.2h2.4v3h-2.2c-0.7,0.1-2,1.1-2.8,2.1l-0.6,0.7v7.1l3.2,0.3l-0.2,1.1l-4.3-0.1l-3.4,0.1
		l-0.2-1l2.1-0.3v-10.9l-2.1,0.2l-0.2-1.1l3.6-0.9l1.2-0.1L119.5,103.6z"/>
	<path class="st0" d="M140.4,106.4c0,4.5-2.7,7-7.4,7.8c-4,0-6.7-3.1-6.7-7.2c0-4.5,2.7-7,7.4-7.8
		C137.7,99.2,140.4,102.3,140.4,106.4z M133.7,112.7c2.4,0,3.6-2.5,3.6-5.7c0-3.8-1.8-6.4-4.4-6.4c-2.4,0-3.6,2.5-3.6,5.7
		C129.3,109.8,131.1,112.7,133.7,112.7z"/>
	<path class="st0" d="M145.6,113.7l-3.5,0.1l-0.1-1l2.1-0.3v-10.9l-2.1,0.2l-0.2-1.1l3.6-0.9l1.3-0.1l0.2,2.5l4.4-2.9
		c3.8,0,4.5,1.3,4.5,4.9v8.3l2.3,0.3l-0.1,1l-3.5-0.1l-2.9,0.1l-0.2-1l1.5-0.3v-8.6c0-1.6-0.7-2.2-2-2.2c-1,0-2.1,0.7-3.1,1.3
		l-0.9,0.6v8.9l1.7,0.3l-0.2,1L145.6,113.7z"/>
	<path class="st0" d="M180.1,113.7l-2.8,0.1l-0.2-1l1.5-0.3v-8.6c0-1.6-0.7-2.2-1.7-2.2c-0.9,0-2,0.6-3.1,1.3l-0.9,0.6v8.8l1.3,0.3
		l-0.2,1l-2.5-0.1l-2.7,0.1l-0.1-1l1.4-0.3v-8.6c0-1.6-0.7-2.2-1.7-2.2c-0.9,0-2,0.6-3.1,1.3l-0.9,0.6v8.8l1.5,0.3l-0.1,1l-2.7-0.1
		l-3.4,0.1l-0.2-1l2.1-0.3v-10.9l-2.1,0.2l-0.2-1.1l3.6-0.9l1.3-0.1l0.2,2.5l4.1-2.9c2.9,0,4,0.9,4.3,2.9l4.2-2.9
		c3.8,0,4.5,1.4,4.5,5.2v8l2.2,0.3l-0.1,1L180.1,113.7z"/>
	<path class="st0" d="M187.6,106.1c0,3.4,1.8,5.9,5,5.9c1.2,0,2.6-0.6,3.8-1.3l0.5,1.1c-1.4,1-3.3,1.8-5.2,2.4
		c-3.6,0-6.9-2.6-6.9-7.3c0-4.4,2.7-6.8,6.8-7.7c4,0,5.3,2.5,5.3,5.6v1.3H187.6z M193.6,104.6c0-2.3-0.5-3.9-2.8-3.9
		c-1.8,0-3,1.7-3.2,4.2L193.6,104.6z"/>
	<path class="st0" d="M202,113.7l-3.5,0.1l-0.1-1l2.1-0.3v-10.9l-2.1,0.2l-0.2-1.1l3.6-0.9l1.3-0.1l0.2,2.5l4.4-2.9
		c3.8,0,4.5,1.3,4.5,4.9v8.3l2.3,0.3l-0.1,1l-3.5-0.1l-2.9,0.1l-0.2-1l1.5-0.3v-8.6c0-1.6-0.7-2.2-2-2.2c-1,0-2.1,0.7-3.1,1.3
		l-0.9,0.6v8.9l1.7,0.3l-0.2,1L202,113.7z"/>
	<path class="st0" d="M214.4,101.4v-0.5l1-1h2v-2l1.9-1.9h0.8v4.1h4.5v1.3h-4.5v8.8c0,0.9,0.3,1.8,1.6,1.8c0.9,0,1.5-0.3,2.4-0.7
		l0.5,1l-3.5,2c-3.4,0-3.8-1.2-3.8-3.9v-8.9h-2.9V101.4z"/>
	<path class="st0" d="M231.7,99.2c3.8,0,4.7,1,4.7,4.8v5.9c0,1.3,0.2,1.8,0.5,2.2h1.5l0.1,1l-3.9,0.8l-0.9-2.3l-3.6,2.6
		c-2.6,0-4.4-1.4-4.4-3.8c0-1.1,0.4-1.9,1-2.8l6.8-2.2v-1.5c0-1.8-0.1-2.9-1.8-2.9c-0.8,0-1.8,0.3-2.5,0.5l-0.5,2.4h-2.6v-2.3
		L231.7,99.2z M233.6,106.6l-4.4,1.8c-0.4,0.5-0.6,1.1-0.6,1.7c0,1.5,0.9,2.1,1.7,2.1c0.8,0,1.6-0.5,2-0.8l1.3-0.9V106.6z"/>
	<path class="st0" d="M243.4,113.7l-3.5,0.1l-0.1-1l2.1-0.3V94.4l-2.1,0.1l-0.2-1l3.6-0.9l1.5-0.1v20.1l2.2,0.3l-0.2,1L243.4,113.7z
		"/>
	<path class="st0" d="M271.7,92.7l0.3,5.4h-1l-1.7-3.9l-8-0.1v8l4.2-0.1l1.2-3.1h1.1l-0.3,3.7l0.3,4h-1.1l-1.2-3.1l-4.2-0.1v9
		l8.2-0.1l2-4h1.1l-1,5.5l-11.9-0.1l-4.1,0.1l-0.1-1l2.7-0.4V94.2l-2.7-0.4l0.1-1.1l4.1,0.1L271.7,92.7z"/>
	<path class="st0" d="M277.3,113.7l-3.5,0.1l-0.2-1l2.1-0.3v-10.9l-2.1,0.2l-0.1-1.1l3.6-0.9l1.3-0.1l0.2,2.5l4.4-2.9
		c3.8,0,4.5,1.3,4.5,4.9v8.3l2.3,0.3l-0.2,1l-3.4-0.1l-2.9,0.1l-0.1-1l1.5-0.3v-8.6c0-1.6-0.7-2.2-2-2.2c-1.1,0-2.1,0.7-3.1,1.3
		l-0.9,0.6v8.9l1.7,0.3l-0.2,1L277.3,113.7z"/>
	<path class="st0" d="M301.5,101l1.6-1.8h1.8v2.4h-1.8l-1,0.5c0.2,0.5,0.3,0.9,0.3,1.4c0,2.5-1.8,4.4-5.8,5.4c-0.4,0-0.8,0-1.2-0.1
		l-1.6,1.9c0,0.6,0.4,1.1,1.2,1.1h5.5c2.7,0,3.9,1.3,3.9,3.1c0,2.5-3.1,4.9-7.7,6.2c-4.3,0-6.5-1.3-6.5-4.1v-0.5l3.3-2.5
		c-2.1-0.8-2.2-1.7-2.2-3.1v-0.2l3-2.1c-1.9-0.7-3.1-2.1-3.1-4c0-2.6,1.7-4.4,5.8-5.4C298.9,99.2,300.5,99.9,301.5,101z
		 M294.5,114.2c-1.5,1.7-1.7,2.2-1.7,2.6c0,1.4,1.6,2.5,4.1,2.5s4.6-1.6,4.6-3.6c0-1.1-0.8-1.5-2.8-1.5H294.5z M296.5,100.6
		c-1.6,0-2.5,1.3-2.5,3.2c0,1.4,0.6,3.8,3.1,3.8c1.6,0,2.5-1.1,2.5-2.8S298.9,100.6,296.5,100.6z"/>
	<path class="st0" d="M310,113.7l-3.4,0.1l-0.2-1l2.1-0.3v-10.9l-2.1,0.2l-0.2-1.1l3.6-0.9l1.5-0.1v12.9l2.2,0.3l-0.1,1L310,113.7z
		 M308.5,93.1l2.2-0.1l0.8,0.1l0.2,1.7l-0.3,1.4l-2.1,0.2l-0.8-0.2l-0.2-1.7L308.5,93.1z"/>
	<path class="st0" d="M318.9,113.7l-3.5,0.1l-0.2-1l2.1-0.3v-10.9l-2.1,0.2l-0.1-1.1l3.6-0.9l1.3-0.1l0.2,2.5l4.4-2.9
		c3.8,0,4.5,1.3,4.5,4.9v8.3l2.3,0.3l-0.2,1l-3.4-0.1l-2.9,0.1l-0.1-1l1.5-0.3v-8.6c0-1.6-0.7-2.2-2-2.2c-1.1,0-2.1,0.7-3.1,1.3
		l-0.9,0.6v8.9l1.7,0.3l-0.2,1L318.9,113.7z"/>
	<path class="st0" d="M335.1,106.1c0,3.4,1.8,5.9,5,5.9c1.2,0,2.6-0.6,3.8-1.3l0.5,1.1c-1.4,1-3.3,1.8-5.2,2.4
		c-3.6,0-6.9-2.6-6.9-7.3c0-4.4,2.7-6.8,6.8-7.7c4,0,5.3,2.5,5.3,5.6v1.3H335.1z M341.1,104.6c0-2.3-0.5-3.9-2.8-3.9
		c-1.8,0-3,1.7-3.2,4.2L341.1,104.6z"/>
	<path class="st0" d="M349,106.1c0,3.4,1.8,5.9,5,5.9c1.2,0,2.6-0.6,3.8-1.3l0.5,1.1c-1.4,1-3.3,1.8-5.2,2.4c-3.6,0-6.9-2.6-6.9-7.3
		c0-4.4,2.7-6.8,6.8-7.7c4,0,5.3,2.5,5.3,5.6v1.3H349z M355,104.6c0-2.3-0.5-3.9-2.8-3.9c-1.8,0-3,1.7-3.2,4.2L355,104.6z"/>
	<path class="st0" d="M364.6,103.6l3.4-4.2h2.4v3h-2.2c-0.7,0.1-2,1.1-2.8,2.1l-0.6,0.7v7.1l3.1,0.3l-0.2,1.1l-4.3-0.1l-3.4,0.1
		l-0.2-1l2.1-0.3v-10.9l-2.1,0.2l-0.1-1.1l3.6-0.9l1.2-0.1L364.6,103.6z"/>
	<path class="st0" d="M375.5,113.7l-3.4,0.1l-0.2-1l2.1-0.3v-10.9l-2.1,0.2l-0.1-1.1l3.6-0.9l1.5-0.1v12.9l2.2,0.3l-0.2,1
		L375.5,113.7z M374,93.1l2.2-0.1l0.8,0.1l0.2,1.7l-0.3,1.4l-2.1,0.2l-0.8-0.2l-0.2-1.7L374,93.1z"/>
	<path class="st0" d="M384.4,113.7l-3.4,0.1l-0.2-1l2.1-0.3v-10.9l-2.1,0.2l-0.1-1.1l3.6-0.9l1.3-0.1l0.1,2.5l4.4-2.9
		c3.8,0,4.5,1.3,4.5,4.9v8.3l2.3,0.3l-0.1,1l-3.5-0.1l-2.9,0.1l-0.1-1l1.5-0.3v-8.6c0-1.6-0.7-2.2-2-2.2c-1,0-2.1,0.7-3.1,1.3
		l-0.9,0.6v8.9l1.6,0.3l-0.1,1L384.4,113.7z"/>
	<path class="st0" d="M408.7,101l1.6-1.8h1.8v2.4h-1.8l-1,0.5c0.2,0.5,0.3,0.9,0.3,1.4c0,2.5-1.8,4.4-5.9,5.4c-0.4,0-0.8,0-1.2-0.1
		l-1.6,1.9c0,0.6,0.4,1.1,1.2,1.1h5.5c2.7,0,3.9,1.3,3.9,3.1c0,2.5-3.1,4.9-7.6,6.2c-4.3,0-6.5-1.3-6.5-4.1v-0.5l3.3-2.5
		c-2.1-0.8-2.2-1.7-2.2-3.1v-0.2l3-2.1c-1.9-0.7-3.1-2.1-3.1-4c0-2.6,1.7-4.4,5.8-5.4C406.1,99.2,407.7,99.9,408.7,101z
		 M401.7,114.2c-1.5,1.7-1.7,2.2-1.7,2.6c0,1.4,1.6,2.5,4.1,2.5s4.6-1.6,4.6-3.6c0-1.1-0.8-1.5-2.8-1.5H401.7z M403.7,100.6
		c-1.6,0-2.5,1.3-2.5,3.2c0,1.4,0.6,3.8,3.1,3.8c1.6,0,2.5-1.1,2.5-2.8C406.8,103.1,406.1,100.6,403.7,100.6z"/>
	<path class="st0" d="M61.2,138.1c-3.4,0-5.6-2.4-5.6-6.2c0-3.1,1.3-6.6,5.6-8l1.7-0.6c2,0,3.5,0.9,4.2,1.5l-0.1,2.9h-1l-0.4-1.9
		c-0.6-0.6-1.7-1.1-3.6-1.4c-2.7,1.2-4.1,3.7-4.1,7.1c0,3.6,2,5.4,4.3,5.5c1-0.4,1.6-0.7,2.2-1.3l1.2-2.4h1.1l-0.8,3.4L61.2,138.1z"
		/>
	<path class="st0" d="M76.1,132c0,2.4-1.4,4.7-3.9,5.6l-1.2,0.5c-1.7,0-3.3-1.4-3.3-4c0-2.4,1.4-4.7,3.9-5.6l1.2-0.5
		C74.5,128.1,76.1,129.5,76.1,132z M69.6,133.8c0,2.2,1,3.1,2.1,3.3c1.8-0.6,2.4-3.1,2.4-4.8c0-2.2-1.1-3.1-2.2-3.3
		C70.2,129.6,69.6,132.1,69.6,133.8z"/>
	<path class="st0" d="M83.5,135.3l0.4,0.5c-0.6,0.5-1.6,1.2-2.6,1.8l-0.8,0.5c-1.8,0-3.3-1.4-3.3-3.9s1.5-4.6,4.1-5.7l1.1-0.4
		c0.5,0,1.6,0.4,2.2,0.7l-1,1.6c-0.7-0.5-1.6-1-2.2-1.2c-1.4,0.8-2.2,2.4-2.2,4.4c0,1.9,1,2.8,2.1,3C81.8,136.3,83,135.7,83.5,135.3
		z"/>
	<path class="st0" d="M85.2,125.1l-0.2-0.6l3.5-1.1l0.5,0.5l-1.4,8.2L88,132l3.6-3.8h1.9l-0.4,1.9h-1.2c-0.7,0.2-1.2,0.5-1.9,1
		l-1.4,1.2l0.5,0.2l2.2,4.1l1.7-1.1l0.3,0.5l-2.8,2l-0.8-0.5l-2.3-4.9l-0.9,5.1h-1.7l2.3-13.2L85.2,125.1z"/>
	<path class="st0" d="M97.8,130.2l-0.6,2.2l2.7-4.1h1.6l-0.4,1.8h-0.9c-0.5,0.3-1.3,1.1-1.9,1.8l-0.8,1l-0.9,4.9h-1.7l1.5-8.3
		l-1.9,0.7l-0.2-0.6l3.3-1.5l0.5,0.5L97.8,130.2z"/>
	<path class="st0" d="M107.6,135.3l0.4,0.5c-0.5,0.4-1.6,1.2-2.6,1.8l-0.8,0.5c-2,0-3.3-1.5-3.3-3.7c0-2.5,1.4-4.9,4-5.9l1.1-0.4
		c1.3,0.2,2.2,0.7,2.2,2.1c0,0.5-0.1,1-0.4,1.7l-5,1.6c0,0.2,0,0.4,0,0.5c0,1.8,1.1,2.6,2.1,2.6
		C105.9,136.3,106.9,135.8,107.6,135.3z M103.3,132.8l3.3-1.3c0.1-0.4,0.2-0.7,0.2-1.1c0-0.9-0.5-1.2-1.1-1.3
		C104.2,129.6,103.5,131.2,103.3,132.8z"/>
	<path class="st0" d="M109.8,125.2l-0.2-0.6l3.5-1.1l0.5,0.5l-2.2,12.6l1.7-1l0.3,0.5l-2.8,2l-1-0.6l2.3-12.8L109.8,125.2z"/>
	<path class="st0" d="M115.2,125.2l-0.2-0.6l3.5-1.1l0.5,0.5l-2.2,12.6l1.7-1l0.3,0.5l-2.8,2l-1-0.6l2.3-12.8L115.2,125.2z"/>
	<path class="st0" d="M134,127.3h-1.1l-0.1-1.8c-0.5-0.5-1.6-1.1-2.6-1.1c-1.5,0.5-2.1,1.2-2.1,2.2c0,1.2,0.7,1.8,1.6,2.5l1.8,1.4
		c0.9,0.7,1.9,1.6,1.9,3.4c0,1.6-1.1,2.9-2.8,3.5l-2,0.7c-1.9,0-3.4-0.6-4.3-1.3l0.5-2.8h1.3v1.7c0.5,0.6,1.9,1.5,3.1,1.5
		c1.5-0.4,2.2-1.4,2.2-2.6c0-1.4-0.6-2-1.6-2.7l-2-1.6c-1-0.7-1.6-1.6-1.6-3c0-1.5,1-2.6,3-3.3l1.8-0.7c1.8,0,3,0.5,3.7,1L134,127.3
		z"/>
	<path class="st0" d="M140.9,135.3l0.4,0.5c-0.6,0.5-1.6,1.2-2.6,1.8l-0.8,0.5c-1.8,0-3.3-1.4-3.3-3.9s1.5-4.6,4.1-5.7l1.1-0.4
		c0.5,0,1.6,0.4,2.2,0.7l-1,1.6c-0.7-0.5-1.6-1-2.2-1.2c-1.4,0.8-2.2,2.4-2.2,4.4c0,1.9,1,2.8,2.1,3
		C139.2,136.3,140.4,135.7,140.9,135.3z"/>
	<path class="st0" d="M144,137.8h-1.7l2.3-13.1l-1.9,0.5l-0.2-0.6l3.5-1.1l0.5,0.5l-1,5.7l-0.3,0.6l3.4-2.2c1.6,0,2.1,1.1,1.9,2.2
		l-1.1,6.3l1.7-1l0.3,0.5l-2.8,2l-1-0.6l1.1-6.4c0.1-0.8,0.1-1.3-0.6-1.3c-0.6,0-1.4,0.4-1.9,0.8l-1,0.7L144,137.8z"/>
	<path class="st0" d="M160.7,132c0,2.4-1.4,4.7-3.9,5.6l-1.2,0.5c-1.7,0-3.3-1.4-3.3-4c0-2.4,1.4-4.7,3.9-5.6l1.2-0.5
		C159.1,128.1,160.7,129.5,160.7,132z M154.2,133.8c0,2.2,1,3.1,2.1,3.3c1.8-0.6,2.4-3.1,2.4-4.8c0-2.2-1.1-3.1-2.2-3.3
		C154.8,129.6,154.2,132.1,154.2,133.8z"/>
	<path class="st0" d="M170.1,132c0,2.4-1.4,4.7-3.9,5.6l-1.2,0.5c-1.7,0-3.3-1.4-3.3-4c0-2.4,1.4-4.7,3.9-5.6l1.2-0.5
		C168.6,128.1,170.1,129.5,170.1,132z M163.7,133.8c0,2.2,1,3.1,2.1,3.3c1.8-0.6,2.4-3.1,2.4-4.8c0-2.2-1.1-3.1-2.2-3.3
		C164.2,129.6,163.7,132.1,163.7,133.8z"/>
	<path class="st0" d="M171.3,125.2l-0.2-0.6l3.5-1.1l0.5,0.5l-2.2,12.6l1.7-1l0.3,0.5l-2.8,2l-1-0.6l2.3-12.8L171.3,125.2z"/>
	<path class="st0" d="M189.2,132c0,2.4-1.4,4.7-3.9,5.6l-1.2,0.5c-1.7,0-3.3-1.4-3.3-4c0-2.4,1.4-4.7,3.9-5.6l1.2-0.5
		C187.7,128.1,189.2,129.5,189.2,132z M182.8,133.8c0,2.2,1,3.1,2.1,3.3c1.8-0.6,2.4-3.1,2.4-4.8c0-2.2-1.1-3.1-2.2-3.3
		C183.3,129.6,182.8,132.1,182.8,133.8z"/>
	<path class="st0" d="M189.6,140.8c0.4-0.5,0.7-1.2,0.8-1.7l1.7-9.6h-1.9l0.1-0.4l0.7-0.7h1.3l0.2-1.1c0.2-1.1,0.6-1.9,1.3-2.4
		l2.5-1.6h1.6l-0.3,1.6h-2.5c-0.5,0.4-0.8,1.2-0.9,1.7l-0.3,1.8h2.3l-0.2,1h-2.2l-1.5,8.9c-0.2,1-0.6,1.9-1.3,2.4l-2.5,1.6H187
		l0.3-1.6h2.3V140.8z"/>
	<path class="st0" d="M212.7,123.7v3.4H212l-0.9-2.4l-5-0.1l-0.8,5.3l2.8-0.1l1.2-2.1h0.6l-0.7,2.6l-0.2,2.6h-0.6l-0.5-2.1l-2.8-0.1
		l-1,6l5.4-0.1l1.5-2.7h0.8l-0.9,3.7l-7.9-0.1l-2.7,0.1v-0.7l1.8-0.3l1.9-12.1l-1.8-0.3l0.2-0.7l2.8,0.1L212.7,123.7z"/>
	<path class="st0" d="M220.1,131c0.1-0.8,0.1-1.3-0.6-1.3c-0.6,0-1.4,0.4-1.9,0.8l-1,0.7l-1.2,6.7h-1.7l1.5-8.3l-1.9,0.7l-0.2-0.6
		l3.3-1.5l0.6,0.6l-0.2,1l-0.3,0.6l3.4-2.2c1.6,0,2.1,1.1,1.9,2.2l-1.1,6.3l1.7-1l0.3,0.5l-2.8,2l-1-0.6L220.1,131z"/>
	<path class="st0" d="M223.4,142.5l0.3-1.6h3.7c0.6-0.4,1.3-1.4,1.5-2.6l0.3-2l0.3-0.9l-2.8,2.7c-1.4-0.3-2.7-1.2-2.7-3.8
		c0-2.4,1.1-4.5,3.5-5.6l1.3-0.6c0.8,0,2.3,0.4,3.4,0.9l-1.7,9.7c-0.2,0.9-1,1.6-2.2,2.5l-1.7,1.3L223.4,142.5L223.4,142.5z
		 M227.1,136.6l2.3-1.8l0.9-4.8c-0.5-0.4-1.7-0.7-2.5-0.7c-1.2,0.9-1.9,2.8-1.9,4.7C225.8,135.4,226.5,136.2,227.1,136.6z"/>
	<path class="st0" d="M233.5,130.1l-0.2-0.6l3.3-1.5l0.6,0.6l-1.4,7.9l1.7-1l0.3,0.5l-2.8,2l-1-0.6l1.4-8L233.5,130.1z M236.3,124
		l0.6-0.1l1.1,0.1v1l-0.3,0.9l-0.5,0.1l-1.3-0.1l0.1-1L236.3,124z"/>
	<path class="st0" d="M245.9,131c0.1-0.8,0.1-1.3-0.6-1.3c-0.6,0-1.4,0.4-1.9,0.8l-1,0.7l-1.2,6.7h-1.7l1.5-8.3l-1.9,0.7l-0.2-0.6
		l3.3-1.5l0.6,0.6l-0.2,1l-0.3,0.6l3.4-2.2c1.6,0,2.1,1.1,1.9,2.2l-1.1,6.3l1.7-1l0.3,0.5l-2.8,2l-1-0.6L245.9,131z"/>
	<path class="st0" d="M255.8,135.3l0.4,0.5c-0.5,0.4-1.6,1.2-2.6,1.8l-0.8,0.5c-2,0-3.3-1.5-3.3-3.7c0-2.5,1.4-4.9,4-5.9l1.1-0.4
		c1.3,0.2,2.2,0.7,2.2,2.1c0,0.5-0.1,1-0.4,1.7l-5,1.6c0,0.2,0,0.4,0,0.5c0,1.8,1.1,2.6,2.1,2.6
		C254.1,136.3,255.1,135.8,255.8,135.3z M251.5,132.8l3.3-1.3c0.1-0.4,0.2-0.7,0.2-1.1c0-0.9-0.5-1.2-1.1-1.3
		C252.4,129.6,251.7,131.2,251.5,132.8z"/>
	<path class="st0" d="M264.2,135.3l0.4,0.5c-0.5,0.4-1.6,1.2-2.6,1.8l-0.8,0.5c-2,0-3.3-1.5-3.3-3.7c0-2.5,1.4-4.9,4-5.9l1.1-0.4
		c1.3,0.2,2.2,0.7,2.2,2.1c0,0.5-0.1,1-0.4,1.7l-5,1.6c0,0.2,0,0.4,0,0.5c0,1.8,1.1,2.6,2.1,2.6
		C262.6,136.3,263.5,135.8,264.2,135.3z M259.9,132.8l3.3-1.3c0.1-0.4,0.2-0.7,0.2-1.1c0-0.9-0.5-1.2-1.1-1.3
		C260.8,129.6,260.2,131.2,259.9,132.8z"/>
	<path class="st0" d="M269.7,130.2l-0.6,2.2l2.7-4.1h1.6l-0.4,1.8h-1c-0.5,0.3-1.3,1.1-1.9,1.8l-0.8,1l-0.9,4.9h-1.7l1.5-8.3
		l-1.9,0.7l-0.2-0.6l3.3-1.5l0.5,0.5L269.7,130.2z"/>
	<path class="st0" d="M274,130.1l-0.2-0.6l3.3-1.5l0.6,0.6l-1.4,7.9l1.7-1l0.3,0.5l-2.8,2l-1-0.6l1.4-8L274,130.1z M276.8,124
		l0.6-0.1l1.1,0.1v1l-0.3,0.9l-0.5,0.1l-1.3-0.1l0.1-1L276.8,124z"/>
	<path class="st0" d="M286.4,131c0.1-0.8,0.1-1.3-0.6-1.3c-0.6,0-1.4,0.4-1.9,0.8l-1,0.7l-1.2,6.7H280l1.5-8.3l-1.9,0.7l-0.2-0.6
		l3.3-1.5l0.6,0.6l-0.2,1l-0.3,0.6l3.4-2.2c1.6,0,2.1,1.1,1.9,2.2l-1.1,6.3l1.7-1l0.3,0.5l-2.8,2l-1-0.6L286.4,131z"/>
	<path class="st0" d="M289.7,142.5l0.3-1.6h3.7c0.6-0.4,1.3-1.4,1.5-2.6l0.3-2l0.3-0.9l-2.8,2.7c-1.4-0.3-2.7-1.2-2.7-3.8
		c0-2.4,1.1-4.5,3.5-5.6l1.3-0.6c0.8,0,2.3,0.4,3.4,0.9l-1.7,9.7c-0.2,0.9-1,1.6-2.2,2.5l-1.7,1.3L289.7,142.5L289.7,142.5z
		 M293.5,136.6l2.3-1.8l0.9-4.8c-0.5-0.4-1.7-0.7-2.5-0.7c-1.2,0.9-1.9,2.8-1.9,4.7C292.2,135.4,292.8,136.2,293.5,136.6z"/>
</g>
<g>
	<g>
		<polygon class="st1" points="20.9,22 21,22 21,22 20.9,22 		"/>
		<path class="st1" d="M26.4,17.5c-1.1-0.2-2.2-0.3-3.2-0.3c-0.5,0-1,0.1-1.4,0.1l-0.2-6.4V9.8c0.4-0.2,1-0.3,1.7-0.3
			c0.9,0,1.9,0.1,3,0.3c0.9,0.1,1.9,0.3,2.9,0.3l0.3,7.6C28.4,17.8,27.4,17.7,26.4,17.5L26.4,17.5z M15.5,17.5c-1,0.2-2,0.3-3.1,0.4
			l0.3-7.6c1-0.1,2-0.2,2.9-0.3c1.1-0.2,2.1-0.3,3-0.3c0.7,0,1.2,0.1,1.7,0.3v1.1l-0.2,6.4c-0.4-0.1-0.9-0.1-1.4-0.1
			C17.7,17.2,16.7,17.3,15.5,17.5L15.5,17.5z M31.7,13v-1.4h-0.9V9.1h-0.6c-1.3,0-2.5-0.2-3.8-0.4c-1.1-0.2-2.2-0.3-3.2-0.3
			c-0.9,0-1.7,0.1-2.3,0.4c-0.6-0.3-1.4-0.4-2.3-0.4c-1,0-2,0.2-3.2,0.3c-1.2,0.2-2.5,0.4-3.8,0.4H11v2.5h-0.9V13H11v2h-0.9v1.4H11
			v2.7h0.6c1.4,0,2.7-0.2,4-0.4c1.1-0.2,2.1-0.3,3-0.3c0.7,0,1.2,0.1,1.7,0.3l0,0h1.2l0,0c0.4-0.2,0.9-0.3,1.7-0.3
			c0.9,0,1.9,0.2,3,0.3c1.3,0.2,2.6,0.4,4,0.4h0.6v-2.7h0.9V15h-0.9v-2H31.7L31.7,13z"/>
		<path class="st1" d="M15.7,11c-0.1,0-0.1,0-0.2,0c-0.6,0.1-1.1,0.2-1.7,0.2v1c0.6-0.1,1.3-0.2,1.9-0.3l0,0L15.7,11L15.7,11z"/>
		<path class="st1" d="M16.4,10.9v1c1-0.1,2-0.2,2.8-0.2v-1C18.4,10.7,17.4,10.8,16.4,10.9L16.4,10.9z"/>
		<path class="st1" d="M15.7,15.4c-0.1,0-0.1,0-0.2,0c-0.6,0.1-1.2,0.2-1.9,0.3v1c0.7-0.1,1.4-0.2,2.1-0.3l0,0V15.4L15.7,15.4z"/>
		<path class="st1" d="M16.4,15.3v1c1-0.1,1.8-0.2,2.6-0.2v-1C18.2,15.1,17.3,15.2,16.4,15.3L16.4,15.3z"/>
		<path class="st1" d="M15.5,13.2v1h0.1c1.3-0.2,2.5-0.4,3.5-0.3v-1C18,12.9,16.8,13.1,15.5,13.2L15.5,13.2z"/>
		<path class="st1" d="M14.8,13.3c-0.4,0.1-0.7,0.1-1.1,0.1v1c0.4,0,0.8-0.1,1.1-0.1V13.3L14.8,13.3z"/>
		<path class="st1" d="M25,10.9c-0.8-0.1-1.6-0.2-2.4-0.1v1c0.7-0.1,1.5,0,2.3,0.1L25,10.9L25,10.9z"/>
		<path class="st1" d="M28.1,11.3c-0.6-0.1-1.2-0.2-1.7-0.2C26.2,11,26,11,25.8,11v1c0.2,0,0.3,0,0.5,0.1c0.6,0.1,1.3,0.2,1.9,0.3
			L28.1,11.3L28.1,11.3z"/>
		<path class="st1" d="M24.8,13c-0.7-0.1-1.4-0.1-2.1-0.1v1c0.6,0,1.3,0,2.1,0.1V13L24.8,13z"/>
		<path class="st1" d="M28.2,13.5c-0.6-0.1-1.2-0.2-1.8-0.2c-0.3,0-0.5-0.1-0.8-0.1v1c0.2,0,0.4,0.1,0.7,0.1c0.6,0.1,1.3,0.2,2,0.3
			L28.2,13.5L28.2,13.5z"/>
		<path class="st1" d="M26.3,16.4c0.7,0.1,1.3,0.2,2,0.3v-1c-0.6-0.1-1.3-0.2-1.9-0.3h-0.1V16.4L26.3,16.4z"/>
		<path class="st1" d="M25.6,15.3c-1-0.1-1.9-0.2-2.7-0.2v1c0.8,0,1.7,0.1,2.7,0.2V15.3L25.6,15.3z"/>
		<path class="st1" d="M19.7,30.9l1.3-3.1l1.3,3.1l3.4,0.2L23,33.3l0.8,3.3l-2.9-1.8L18,36.6l0.8-3.3l-2.6-2.2L19.7,30.9L19.7,30.9z
			 M12.1,29.8L12.1,29.8l5.4,4l-2.1,6.5l0,0l0,0l5.5-4l5.5,4l0,0c0,0,0,0,0-0.1l-2.1-6.4l5.4-4l0,0c0,0,0,0,0-0.1c0,0,0,0-0.1,0l0,0
			h-6.7L21,23.3l0,0l0,0l0,0l0,0l-2.1,6.4L12.1,29.8L12.1,29.8C12.1,29.7,12,29.7,12.1,29.8C12,29.7,12,29.8,12.1,29.8L12.1,29.8z"
			/>
		<path class="st1" d="M34.5,37.9c-0.5,0.5-1.1,0.9-1.8,1.1c0.1-0.7,0.4-1.4,0.9-1.9s1.1-0.9,1.8-1.1C35.3,36.6,35,37.3,34.5,37.9
			L34.5,37.9z M31.8,33.6c-0.1-0.7,0-1.5,0.4-2.1c0.5,0.5,0.8,1.2,0.9,1.9c0.1,0.7,0,1.5-0.4,2.1C32.2,35,31.9,34.4,31.8,33.6
			L31.8,33.6z M33.3,28.1c-0.1-0.7-0.1-1.5,0.2-2.1c0.5,0.5,0.9,1.2,1,1.9c0.1,0.7,0.1,1.5-0.2,2.1C33.8,29.5,33.4,28.8,33.3,28.1
			L33.3,28.1z M36.8,29.7c0.1,0.7-0.1,1.4-0.5,2.1c-0.4,0.6-0.9,1.1-1.6,1.4c-0.1-0.7,0.1-1.4,0.5-2.1C35.6,30.5,36.1,30,36.8,29.7
			L36.8,29.7z M31.4,43.4c-0.6,0.4-1.3,0.7-2,0.7c0.2-0.7,0.7-1.3,1.3-1.7c0.6-0.4,1.3-0.7,2-0.7C32.5,42.4,32,43,31.4,43.4
			L31.4,43.4z M29.7,38.7c0.1-0.7,0.3-1.4,0.8-2c0.4,0.6,0.5,1.4,0.5,2.1c-0.1,0.7-0.3,1.4-0.8,2C29.8,40.2,29.7,39.5,29.7,38.7
			L29.7,38.7z M27.8,43.6c-0.2,0.7-0.6,1.3-1.2,1.8c-0.2-0.7-0.2-1.4,0-2.1s0.6-1.3,1.2-1.8C28,42.2,28,42.9,27.8,43.6L27.8,43.6z
			 M28.9,46.8c-0.4,0.6-0.9,1.1-1.6,1.4c-0.5,0.2-1,0.3-1.5,0.3l0,0c-0.2,0-0.4,0-0.6-0.1c0.4-0.6,0.9-1.1,1.6-1.4
			C27.5,46.8,28.2,46.7,28.9,46.8L28.9,46.8z M22.6,47.1c0.4-0.6,0.9-1.2,1.5-1.5c0.1,0.7-0.1,1.4-0.4,2.1c-0.3,0.6-0.9,1.2-1.5,1.5
			C22.2,48.5,22.3,47.7,22.6,47.1L22.6,47.1z M14.5,48.2c-0.7-0.3-1.2-0.8-1.6-1.4c0.7-0.1,1.4,0,2.1,0.3s1.2,0.8,1.6,1.4
			C15.9,48.6,15.2,48.5,14.5,48.2L14.5,48.2z M14,43.6c-0.2-0.7-0.2-1.4,0-2.1c0.6,0.5,1,1.1,1.2,1.8c0.2,0.7,0.2,1.4,0,2.1
			C14.6,45,14.2,44.3,14,43.6L14,43.6z M17.7,45.6c0.6,0.3,1.2,0.9,1.5,1.5s0.5,1.4,0.4,2.1c-0.6-0.3-1.2-0.9-1.5-1.5
			C17.7,47,17.6,46.3,17.7,45.6L17.7,45.6z M10.4,43.4c-0.6-0.4-1-1-1.3-1.7c0.7,0,1.4,0.3,2,0.7c0.6,0.4,1,1,1.3,1.7
			C11.7,44.1,11,43.8,10.4,43.4L10.4,43.4z M11.3,36.7c0.5,0.6,0.7,1.3,0.8,2c0.1,0.7-0.1,1.5-0.5,2.1c-0.5-0.6-0.7-1.3-0.8-2
			C10.8,38.1,11,37.4,11.3,36.7L11.3,36.7z M7.4,37.9c-0.5-0.5-0.8-1.2-0.9-1.9c0.7,0.2,1.3,0.5,1.8,1.1c0.5,0.5,0.8,1.2,0.9,1.9
			C8.5,38.8,7.9,38.4,7.4,37.9L7.4,37.9z M7.1,33.2c-0.7-0.3-1.2-0.8-1.6-1.4C5.1,31.2,5,30.4,5,29.7c0.7,0.3,1.2,0.8,1.6,1.4
			C7,31.8,7.2,32.5,7.1,33.2L7.1,33.2z M7.3,27.9c0.1-0.7,0.5-1.4,1-1.9c0.3,0.7,0.4,1.4,0.2,2.1c-0.1,0.7-0.5,1.4-1,1.9
			C7.2,29.3,7.2,28.6,7.3,27.9L7.3,27.9z M8.8,33.5c0.1-0.7,0.4-1.4,0.9-1.9c0.3,0.6,0.5,1.4,0.4,2.1s-0.4,1.4-0.9,1.9
			C8.8,34.9,8.7,34.2,8.8,33.5L8.8,33.5z M34.5,34.4c1.1-0.3,2.1-1.1,2.7-2.1s0.8-2.2,0.5-3.3l-0.1-0.5L37,28.6
			c-0.6,0.2-1.1,0.4-1.5,0.8c0.1-0.6,0.1-1.1,0-1.7c-0.2-1.1-0.9-2.2-1.8-2.8l-0.4-0.3L33,25c-0.6,1-0.8,2.2-0.6,3.3
			c0.2,1.1,0.9,2.1,1.8,2.8c-0.2,0.4-0.3,0.8-0.3,1.2c-0.3-0.8-0.8-1.4-1.4-2L32,30.1l-0.3,0.4c-0.7,0.9-1,2.1-0.8,3.3
			c0.2,1.2,0.7,2.2,1.6,3l0,0c-0.3,0.4-0.5,0.8-0.6,1.2c-0.1-0.8-0.4-1.6-1-2.2l-0.3-0.4l-0.4,0.4c-0.9,0.8-1.4,1.9-1.5,3
			c-0.1,1.2,0.3,2.3,1,3.2l0,0c-0.3,0.3-0.6,0.6-0.9,1c0.1-0.8-0.1-1.6-0.5-2.4l-0.2-0.5l-0.4,0.3c-1,0.6-1.7,1.5-2.1,2.7
			c-0.3,1.1-0.2,2.3,0.3,3.4l0,0c-0.4,0.2-0.7,0.5-1,0.8c0.2-0.8,0.2-1.6,0-2.4l-0.1-0.5l-0.5,0.2c-1.1,0.4-2,1.1-2.6,2.2
			c-0.5,1-0.7,2.1-0.4,3.2c-0.1,0.1-0.3,0.2-0.5,0.3c-0.2-0.1-0.3-0.2-0.5-0.3c0.3-1.1,0.1-2.2-0.4-3.2c-0.6-1-1.5-1.8-2.6-2.2
			L17,44.3l-0.1,0.5c-0.2,0.8-0.2,1.6,0,2.4c-0.3-0.3-0.7-0.6-1-0.8l0,0c0.5-1,0.6-2.2,0.3-3.4c-0.3-1.1-1.1-2.1-2.1-2.7L13.7,40
			l-0.2,0.5c-0.4,0.7-0.5,1.6-0.5,2.4c-0.2-0.4-0.5-0.7-0.9-1l0,0c0.7-0.9,1.1-2.1,1-3.2c-0.1-1.2-0.6-2.2-1.5-3l-0.4-0.4l-0.3,0.4
			c-0.5,0.6-0.8,1.4-1,2.2c-0.1-0.4-0.4-0.8-0.6-1.2l0,0c0.9-0.7,1.5-1.8,1.6-3s-0.1-2.3-0.8-3.3L9.8,30l-0.4,0.3
			c-0.6,0.5-1.1,1.2-1.4,2c-0.1-0.4-0.2-0.8-0.4-1.2c0.9-0.7,1.6-1.7,1.8-2.8c0.2-1.2,0-2.3-0.6-3.3l-0.3-0.4l-0.4,0.3
			c-0.9,0.7-1.6,1.7-1.8,2.8c-0.1,0.6-0.1,1.1,0,1.7c-0.5-0.4-1-0.6-1.5-0.8l-0.5-0.1L4.2,29c-0.3,1.1-0.1,2.3,0.5,3.3
			s1.5,1.7,2.7,2.1l0.4,0.1c0,0.4,0.1,0.7,0.3,1.1C7.5,35.2,6.8,35,6,34.9H5.5v0.5c0,1.2,0.4,2.3,1.2,3.2c0.8,0.9,1.9,1.4,3,1.5h0.5
			c0.1,0.4,0.3,0.7,0.5,1c-0.5-0.2-1-0.3-1.6-0.3c-0.2,0-0.4,0-0.6,0L8,40.9l0.1,0.5c0.2,1.2,0.9,2.2,1.8,2.8
			c0.8,0.6,1.7,0.9,2.7,0.9c0.2,0,0.4,0,0.6,0l0.5-0.1c0.2,0.3,0.4,0.6,0.7,0.9c-0.7-0.1-1.5,0-2.2,0.2l-0.5,0.2l0.2,0.5
			c0.5,1.1,1.3,1.9,2.4,2.4c0.6,0.3,1.2,0.4,1.9,0.4c0.5,0,1-0.1,1.5-0.3l0.4-0.1c0.6,0.5,1.3,1,2.2,1.7c-0.4,0.3-0.9,0.6-1.4,0.9
			l0.9,0.6c0.5-0.3,1-0.6,1.4-0.9c0.4,0.3,0.9,0.6,1.4,0.9l0.9-0.6c-0.5-0.3-1-0.6-1.4-0.9c0.9-0.6,1.6-1.1,2.2-1.7l0.4,0.1
			c0.5,0.2,1,0.3,1.5,0.3l0,0c0.6,0,1.3-0.1,1.9-0.4c1.1-0.5,1.9-1.3,2.4-2.4l0.2-0.5L29.8,46c-0.7-0.2-1.5-0.3-2.2-0.2
			c0.3-0.3,0.5-0.6,0.7-0.9l0.5,0.1c0.2,0,0.4,0,0.6,0l0,0c1,0,1.9-0.3,2.7-0.9c0.9-0.7,1.6-1.7,1.8-2.8l0.1-0.5l-0.5-0.1
			c-0.2,0-0.4,0-0.6,0c-0.6,0-1.1,0.1-1.6,0.3c0.2-0.3,0.4-0.6,0.5-1h0.5c1.2-0.1,2.2-0.6,3-1.5s1.2-2,1.2-3.2v-0.5H36
			c-0.7,0.1-1.5,0.3-2.1,0.7c0.1-0.3,0.2-0.7,0.3-1.1H34.5L34.5,34.4z"/>
		<path class="st1" d="M34.6,44.6c-1,1.4-2.1,2.8-3.5,4.1c-4.2,3.8-8.9,6-10.2,6.5c-1.3-0.6-6-2.7-10.2-6.5
			c-1.4-1.3-2.5-2.6-3.5-4.1c-4.7-6.9-5.4-15-5.4-21.3l0,0l19-1.1l19,1.1C40,29.6,39.3,37.6,34.6,44.6L34.6,44.6z M2.9,7.1
			c3.5-0.4,11.5-1.2,18-1.2s14.5,0.8,18,1.2l1,13.9h-19H2L2.9,7.1L2.9,7.1z M41.9,5.5L41,5.4C40.9,5.4,29.7,4,21,4l0,0l0,0
			C12.3,4,1,5.4,0.9,5.4L0,5.5V21l0,0v2.2c0,6.5,0.6,15,5.7,22.4c1,1.5,2.2,2.9,3.6,4.3l0,0l0,0c2.7,2.6,6.4,5.1,11.6,8l0,0l0,0l0,0
			l0,0c5.2-2.9,8.8-5.4,11.6-8l0,0l0,0c1.4-1.4,2.6-2.8,3.6-4.3c5.1-7.4,5.7-15.9,5.7-22.4v-0.3l0,0V5.5H41.9z"/>
	</g>
	<g>
		<path class="st1" d="M71.9,21.1L70,21.2l-0.1-0.7l1-0.2v-5.7c0-1-0.5-1.5-1.3-1.5c-0.6,0-1.4,0.4-2.1,0.9l-0.6,0.4v5.9l1.1,0.2
			l-0.1,0.7L66,21.1l-2.1,0.1l-0.1-0.7l1.2-0.2V8l-0.7,0.1L60.2,8v12.1l2.3,0.3l-0.1,0.7L59.2,21l-3.4,0.1l-0.1-0.7l2.4-0.3v-12
			l-3,0.1l-0.9,2.5h-0.8V7.2h5.7H64L66.1,7h0.7v6.5l2.9-1.9c2.6,0,3,1,3,3.5v5.3l1.5,0.2l-0.1,0.7L71.9,21.1z"/>
		<path class="st1" d="M77.1,16c0,2.3,1.2,3.9,3.3,3.9c0.8,0,1.8-0.4,2.5-0.8l0.3,0.8c-1,0.7-2.2,1.2-3.5,1.6
			c-2.4,0-4.6-1.7-4.6-4.9c0-3,1.8-4.5,4.5-5.1c2.6,0,3.5,1.7,3.5,3.8V16H77.1z M81.2,15c0-1.5-0.3-2.6-1.8-2.6
			c-1.2,0-2,1.1-2.2,2.8L81.2,15z"/>
		<path class="st1" d="M97.1,7.8l0.1-0.7l2.6,0.1l2.3-0.1l0.1,0.7l-1.7,0.3v8.2c0,2.6-1.1,4.3-5,5.3c-3.9,0-5.3-2.1-5.3-5.3V8.2
			l-1.8-0.3l0.1-0.7l2.8,0.1L94,7.2l0.1,0.7l-1.7,0.3v8.4c0,2.5,1.1,3.9,3.3,3.9c2.1,0,3.2-1.4,3.2-4V8.1L97.1,7.8z"/>
		<path class="st1" d="M104.9,21.1l-2.3,0.1l-0.1-0.7l1.4-0.2V13l-1.4,0.1l-0.1-0.7l2.4-0.6l0.9-0.1l0.1,1.7l3-1.9
			c2.6,0,3,0.9,3,3.3v5.6l1.5,0.2l-0.1,0.7l-2.3-0.1l-1.9,0.1l-0.1-0.7l1-0.2v-5.7c0-1-0.5-1.5-1.3-1.5c-0.7,0-1.4,0.4-2.1,0.9
			l-0.6,0.4v5.9l1.1,0.2l-0.1,0.7L104.9,21.1z"/>
		<path class="st1" d="M116.3,21.1l-2.3,0.1l-0.1-0.7l1.4-0.2V13l-1.4,0.1l-0.1-0.7l2.4-0.6l1-0.1v8.6l1.5,0.2l-0.1,0.7L116.3,21.1z
			 M115.3,7.3l1.4-0.1l0.6,0.1l0.1,1.1l-0.2,1l-1.4,0.1l-0.5-0.1l-0.1-1.1L115.3,7.3z"/>
		<path class="st1" d="M124.3,19.8l2.4-7.2l-0.9-0.2l0.1-0.7l1.8,0.1l1.7-0.1l0.1,0.7l-1.3,0.2l-3.3,8.2l-1.5,0.6l-3.5-8.8l-1.2-0.2
			l0.1-0.7l2.3,0.1l2.1-0.1l0.1,0.7l-1.3,0.2l2.2,5.9L124.3,19.8z"/>
		<path class="st1" d="M131.4,16c0,2.3,1.2,3.9,3.3,3.9c0.8,0,1.8-0.4,2.5-0.8l0.3,0.8c-1,0.7-2.2,1.2-3.5,1.6
			c-2.4,0-4.6-1.7-4.6-4.9c0-3,1.8-4.5,4.5-5.1c2.6,0,3.5,1.7,3.5,3.8V16H131.4z M135.4,15c0-1.5-0.3-2.6-1.8-2.6
			c-1.2,0-2,1.1-2.2,2.8L135.4,15z"/>
		<path class="st1" d="M142,14.3l2.3-2.8h1.6v2h-1.5c-0.5,0.1-1.4,0.8-1.9,1.4l-0.4,0.5v4.8l2.1,0.2l-0.1,0.8l-2.9-0.1l-2.2,0.1
			l-0.1-0.7l1.4-0.2V13l-1.4,0.1l-0.1-0.7l2.4-0.6l0.8-0.1L142,14.3z"/>
		<path class="st1" d="M152.2,12.8c-0.2-0.1-0.8-0.4-1.5-0.4c-0.8,0-1.5,0.4-1.5,1.2c0,0.6,0.5,1,1.4,1.5l1.5,0.8
			c1.3,0.7,1.9,1.4,1.9,2.6c0,1.8-1.5,2.5-3.8,3c-1.2,0-2.5-0.6-3-0.9l-0.4-2.3h1.3l0.7,1.7c0.4,0.3,1,0.5,1.6,0.5
			c1.1,0,1.6-0.7,1.6-1.5s-0.4-1.1-1.5-1.7l-1.6-0.8c-0.9-0.4-1.7-1.2-1.7-2.3c0-1.4,1.3-2.2,3.6-2.7c1.1,0,2.2,0.5,2.8,0.9v2h-1.1
			L152.2,12.8z"/>
		<path class="st1" d="M157.7,21.1l-2.3,0.1l-0.1-0.7l1.4-0.2V13l-1.4,0.1l-0.1-0.7l2.4-0.6l1-0.1v8.6l1.5,0.2l-0.1,0.7L157.7,21.1z
			 M156.7,7.3l1.4-0.1l0.6,0.1l0.1,1.1l-0.2,1l-1.4,0.1l-0.5-0.1l-0.1-1.1L156.7,7.3z"/>
		<path class="st1" d="M167.6,25.8v-2h1.7l2-3l-0.8,0.2l-3.4-8.4h-3v6.1c0,0.6,0.2,1.2,1.1,1.2c0.6,0,1.2-0.3,1.8-0.6l0.3,0.7
			l-2.5,1.4c-2.2,0-2.5-0.8-2.5-2.6v-6h-1.9v-0.3l0.7-0.7h1.3v-1.3l1.3-1.3h0.5v2.5h6.3l0.1,0.7l-1.3,0.2l2.2,5.9l0.2,1.4l2.5-7.2
			l-0.9-0.2l0.1-0.7l1.8,0.1l1.7-0.1l0.1,0.7l-1.3,0.2l-3.2,8.2l-2.2,5L167.6,25.8L167.6,25.8z"/>
		<path class="st1" d="M189.9,16.2c0,3-1.8,4.7-4.9,5.2c-2.7,0-4.5-2.1-4.5-4.8c0-3,1.8-4.7,4.9-5.2
			C188.1,11.4,189.9,13.5,189.9,16.2z M185.5,20.4c1.6,0,2.4-1.6,2.4-3.8c0-2.5-1.2-4.2-3-4.2c-1.6,0-2.4,1.6-2.4,3.8
			C182.6,18.5,183.7,20.4,185.5,20.4z"/>
		<path class="st1" d="M194.4,11.9h2.5v0.9h-2.5v7.4l2.3,0.1l-0.1,0.8l-3.1-0.1l-2.3,0.1l-0.1-0.7l1.4-0.2v-7.4h-1.8v-0.3l0.6-0.7
			h1.2v-0.2c0-1.2,0.4-2,1.1-2.8l1.7-1.9h2.5v1.6h-2.6L194.8,9c-0.3,0.4-0.4,1-0.4,2.3L194.4,11.9L194.4,11.9z"/>
		<path class="st1" d="M212.2,21.1L209,21l-3.4,0.1l-0.1-0.7l2.4-0.3v-12h-3l-0.9,2.5h-0.8V7.1l5.7,0.1l5.8-0.1v3.5H214l-0.9-2.5h-3
			v12.1l2.3,0.3L212.2,21.1z"/>
		<path class="st1" d="M215.8,16c0,2.3,1.2,3.9,3.3,3.9c0.8,0,1.8-0.4,2.5-0.8l0.3,0.8c-1,0.7-2.2,1.2-3.5,1.6
			c-2.4,0-4.6-1.7-4.6-4.9c0-3,1.8-4.5,4.5-5.1c2.6,0,3.5,1.7,3.5,3.8V16H215.8z M219.8,15c0-1.5-0.3-2.6-1.8-2.6
			c-1.2,0-2,1.1-2.2,2.8L219.8,15z"/>
		<path class="st1" d="M226.5,20.4l-0.1,0.7l-1.6-0.1l-2.1,0.1l-0.1-0.7l1.4-0.2l3-3.6l-2.9-4l-1.2-0.2l0.1-0.7l2.3,0.1l1.9-0.1
			l0.1,0.7l-0.8,0.2l1.5,2.2l0.2,0.5l1.9-2.7l-1-0.2l0.1-0.7l1.6,0.1l2.1-0.1l0.1,0.7l-1.4,0.2l-2.6,3.2l3.1,4.4l1.2,0.2l-0.1,0.7
			l-2.3-0.1l-1.9,0.1l-0.1-0.7l0.8-0.2l-1.8-2.6l-0.2-0.5l-2.1,3L226.5,20.4z"/>
		<path class="st1" d="M237.8,11.4c2.5,0,3.2,0.6,3.2,3.2v3.9c0,0.9,0.1,1.2,0.3,1.5h1l0.1,0.7l-2.6,0.5l-0.6-1.5l-2.4,1.7
			c-1.7,0-2.9-1-2.9-2.6c0-0.7,0.3-1.2,0.7-1.8l4.5-1.5v-1c0-1.2-0.1-1.9-1.2-1.9c-0.5,0-1.2,0.2-1.6,0.4l-0.3,1.6h-1.7V13
			L237.8,11.4z M239.1,16.3l-2.9,1.2c-0.3,0.3-0.4,0.7-0.4,1.1c0,1,0.6,1.4,1.2,1.4s1-0.3,1.3-0.5l0.8-0.6V16.3z"/>
		<path class="st1" d="M248.6,12.8c-0.2-0.1-0.8-0.4-1.5-0.4c-0.8,0-1.5,0.4-1.5,1.2c0,0.6,0.5,1,1.4,1.5l1.5,0.8
			c1.3,0.7,1.9,1.4,1.9,2.6c0,1.8-1.5,2.5-3.8,3c-1.2,0-2.5-0.6-3-0.9l-0.4-2.3h1.3l0.7,1.7c0.4,0.3,1,0.5,1.6,0.5
			c1.1,0,1.6-0.7,1.6-1.5s-0.4-1.1-1.5-1.7l-1.6-0.8c-0.9-0.4-1.7-1.2-1.7-2.3c0-1.4,1.3-2.2,3.6-2.7c1.1,0,2.2,0.5,2.8,0.9v2h-1
			L248.6,12.8z"/>
		<path class="st1" d="M260.4,11.4c2.5,0,3.2,0.6,3.2,3.2v3.9c0,0.9,0.1,1.2,0.3,1.5h1l0.1,0.7l-2.6,0.5l-0.6-1.5l-2.4,1.7
			c-1.7,0-2.9-1-2.9-2.6c0-0.7,0.3-1.2,0.7-1.8l4.5-1.5v-1c0-1.2-0.1-1.9-1.2-1.9c-0.5,0-1.2,0.2-1.6,0.4l-0.3,1.6h-1.7V13
			L260.4,11.4z M261.7,16.3l-2.9,1.2c-0.3,0.3-0.4,0.7-0.4,1.1c0,1,0.6,1.4,1.2,1.4s1-0.3,1.3-0.5l0.8-0.6V16.3z"/>
		<path class="st1" d="M264.9,12.9v-0.3l0.7-0.7h1.3v-1.3l1.3-1.3h0.5V12h3v0.9h-3v5.9c0,0.6,0.2,1.2,1.1,1.2c0.6,0,1-0.2,1.6-0.5
			l0.3,0.7l-2.3,1.3c-2.2,0-2.5-0.8-2.5-2.6v-6H264.9z"/>
		<path class="st1" d="M280.2,16.4l-1.3,3.7l1.7,0.3l-0.1,0.7l-2.4-0.1l-2.1,0.1l-0.1-0.7l1.6-0.2l5-13l1.2-0.3l5.2,13.3l1.6,0.2
			l-0.1,0.7l-2.8-0.1l-2.6,0.1l-0.1-0.7l1.7-0.3l-1.4-3.7H280.2z M282.9,10.2l-0.1-1.1l-2.2,6.4h4.3L282.9,10.2z"/>
		<path class="st1" d="M298.9,18.5c0,0.9,0.1,1.2,0.2,1.5h1l0.1,0.7l-2.6,0.5l-0.6-1.6l-2.9,1.8c-2.6,0-3.1-0.9-3.1-3.3v-5.2
			l-1.4,0.1l-0.1-0.8l2.4-0.5l1-0.1v6.7c0,1,0.4,1.5,1.4,1.5c0.6,0,1.4-0.5,2.2-1l0.4-0.3v-5.6l-1.2,0.1l-0.1-0.8l2.2-0.5l1-0.1v6.9
			H298.9z"/>
		<path class="st1" d="M306.5,12.8c-0.2-0.1-0.8-0.4-1.5-0.4c-0.8,0-1.5,0.4-1.5,1.2c0,0.6,0.5,1,1.4,1.5l1.5,0.8
			c1.3,0.7,1.9,1.4,1.9,2.6c0,1.8-1.5,2.5-3.8,3c-1.2,0-2.5-0.6-3-0.9l-0.4-2.3h1.3l0.7,1.7c0.4,0.3,1,0.5,1.6,0.5
			c1.1,0,1.6-0.7,1.6-1.5s-0.4-1.1-1.5-1.7l-1.6-0.8c-0.9-0.4-1.7-1.2-1.7-2.3c0-1.4,1.3-2.2,3.6-2.7c1.1,0,2.2,0.5,2.8,0.9v2H307
			L306.5,12.8z"/>
		<path class="st1" d="M308.9,12.9v-0.3l0.7-0.7h1.3v-1.3l1.3-1.3h0.5V12h3v0.9h-3v5.9c0,0.6,0.2,1.2,1.1,1.2c0.6,0,1-0.2,1.6-0.5
			l0.3,0.7l-2.3,1.3c-2.2,0-2.5-0.8-2.5-2.6v-6H308.9z"/>
		<path class="st1" d="M319.3,21.1l-2.3,0.1l-0.1-0.7l1.4-0.2V13l-1.4,0.1l-0.1-0.7l2.4-0.6l1-0.1v8.6l1.5,0.2l-0.1,0.7L319.3,21.1z
			 M318.3,7.3l1.4-0.1l0.6,0.1l0.1,1.1l-0.2,1l-1.4,0.1l-0.5-0.1l-0.1-1.1L318.3,7.3z"/>
		<path class="st1" d="M325,21.1l-2.3,0.1l-0.1-0.7l1.4-0.2V13l-1.4,0.1l-0.1-0.7l2.4-0.6l0.9-0.1l0.1,1.7l3-1.9c2.6,0,3,0.9,3,3.3
			v5.6l1.5,0.2l-0.1,0.7l-2.3-0.1l-1.9,0.1l-0.1-0.7l1-0.2v-5.7c0-1-0.5-1.5-1.3-1.5c-0.7,0-1.4,0.4-2.1,0.9l-0.6,0.4v5.9l1.1,0.2
			l-0.1,0.7L325,21.1z"/>
	</g>
</g>
</svg>
